<svg xmlns="http://www.w3.org/2000/svg" xmlns:xlink="http://www.w3.org/1999/xlink" width="6912" zoomAndPan="magnify" viewBox="0 0 5184 576" height="768" preserveAspectRatio="xMidYMid meet" version="1.0"><defs><g/><clipPath id="e75d55f957"><path d="M 1984 44 L 2460 44 L 2460 519 L 1984 519 Z M 1984 44 " clip-rule="nonzero"/></clipPath><clipPath id="3dbfab7e8a"><path d="M 1791.078125 237.683594 L 2158.597656 -129.835938 L 2626.878906 338.445312 L 2259.359375 705.964844 Z M 1791.078125 237.683594 " clip-rule="nonzero"/></clipPath><clipPath id="ad09213213"><path d="M 1791.078125 237.683594 L 2158.597656 -129.835938 L 2626.878906 338.445312 L 2259.359375 705.964844 Z M 1791.078125 237.683594 " clip-rule="nonzero"/></clipPath><clipPath id="f12b31ecdd"><path d="M 2196 255 L 2285 255 L 2285 344 L 2196 344 Z M 2196 255 " clip-rule="nonzero"/></clipPath><clipPath id="f2dba77c13"><path d="M 1791.078125 237.683594 L 2158.597656 -129.835938 L 2626.878906 338.445312 L 2259.359375 705.964844 Z M 1791.078125 237.683594 " clip-rule="nonzero"/></clipPath><clipPath id="33f3e02f85"><path d="M 1791.078125 237.683594 L 2158.597656 -129.835938 L 2626.878906 338.445312 L 2259.359375 705.964844 Z M 1791.078125 237.683594 " clip-rule="nonzero"/></clipPath><clipPath id="2f68c58e76"><path d="M 1971 29 L 2272 29 L 2272 334 L 1971 334 Z M 1971 29 " clip-rule="nonzero"/></clipPath><clipPath id="6aee714498"><path d="M 1791.078125 237.683594 L 2158.597656 -129.835938 L 2626.878906 338.445312 L 2259.359375 705.964844 Z M 1791.078125 237.683594 " clip-rule="nonzero"/></clipPath><clipPath id="afbe71e5c5"><path d="M 1791.078125 237.683594 L 2158.597656 -129.835938 L 2626.878906 338.445312 L 2259.359375 705.964844 Z M 1791.078125 237.683594 " clip-rule="nonzero"/></clipPath><clipPath id="457ee1f66d"><path d="M 2066 139 L 2462 139 L 2462 517 L 2066 517 Z M 2066 139 " clip-rule="nonzero"/></clipPath><clipPath id="a0e5430ac4"><path d="M 1791.078125 237.683594 L 2158.597656 -129.835938 L 2626.878906 338.445312 L 2259.359375 705.964844 Z M 1791.078125 237.683594 " clip-rule="nonzero"/></clipPath><clipPath id="06c89fe510"><path d="M 1791.078125 237.683594 L 2158.597656 -129.835938 L 2626.878906 338.445312 L 2259.359375 705.964844 Z M 1791.078125 237.683594 " clip-rule="nonzero"/></clipPath></defs><g clip-path="url(#e75d55f957)"><g clip-path="url(#3dbfab7e8a)"><g clip-path="url(#ad09213213)"><path fill="#956acd" d="M 2203.082031 68.644531 L 2231.492188 290.953125 L 2009.171875 262.550781 L 1984.847656 44.308594 Z M 2459.386719 310.726562 L 2427.578125 139.207031 L 2301.742188 200.5 L 2271.738281 268.117188 Z M 2208.28125 331.675781 L 2141.285156 363.070312 L 2066.492188 513.09375 L 2254.699219 518.460938 Z M 2208.28125 331.675781 " fill-opacity="1" fill-rule="nonzero"/></g></g></g><g clip-path="url(#f12b31ecdd)"><g clip-path="url(#f2dba77c13)"><g clip-path="url(#33f3e02f85)"><path fill="#ff0054" d="M 2282.792969 278.378906 C 2289.589844 286.679688 2274.75 287.707031 2251.039062 311.636719 C 2228.175781 334.707031 2227.140625 348.6875 2219.03125 342.140625 C 2206.6875 332.03125 2185.4375 279.761719 2202.921875 262.257812 C 2220.402344 244.757812 2272.59375 266.023438 2282.792969 278.378906 Z M 2282.792969 278.378906 " fill-opacity="1" fill-rule="nonzero"/></g></g></g><g clip-path="url(#2f68c58e76)"><g clip-path="url(#6aee714498)"><g clip-path="url(#afbe71e5c5)"><path fill="#613f8d" d="M 2152.394531 148.773438 L 2146.023438 29.441406 L 2245.324219 81.386719 L 2271.851562 268.230469 Z M 2090.574219 213.96875 L 1971.234375 207.585938 L 2023.167969 306.898438 L 2210.019531 333.414062 Z M 2090.574219 213.96875 " fill-opacity="1" fill-rule="nonzero"/></g></g></g><g clip-path="url(#457ee1f66d)"><g clip-path="url(#a0e5430ac4)"><g clip-path="url(#06c89fe510)"><path fill="#b090da" d="M 2271.789062 268.167969 L 2461.398438 336.632812 L 2452.460938 512.570312 L 2281.816406 516.21875 L 2208.300781 331.65625 Z M 2301.742188 200.5 L 2427.578125 139.207031 L 2292.085938 172.683594 L 2271.730469 268.128906 Z M 2208.28125 331.675781 L 2126.726562 340.527344 L 2066.492188 513.09375 L 2141.304688 363.09375 Z M 2208.28125 331.675781 " fill-opacity="1" fill-rule="nonzero"/></g></g></g><g fill="#406c8d" fill-opacity="1"><g transform="translate(122.808792, 470.087242)"><g><path d="M 50.34375 0 L 50.34375 -48.0625 L 258.046875 -48.0625 L 288.953125 -79.53125 L 288.953125 -163.640625 L 258.046875 -195.109375 L 94.984375 -195.109375 L 35.46875 -254.609375 L 35.46875 -361.609375 L 94.984375 -421.6875 L 319.265625 -421.6875 L 319.265625 -373.625 L 118.4375 -373.625 L 86.96875 -342.15625 L 87.546875 -272.359375 L 118.4375 -240.890625 L 281.515625 -240.890625 L 341.015625 -180.8125 L 341.015625 -60.078125 L 281.515625 0 Z M 50.34375 0 "/></g></g></g><g fill="#406c8d" fill-opacity="1"><g transform="translate(499.293873, 470.087242)"><g><path d="M 46.921875 -331.859375 L 46.921875 -399.375 L 97.265625 -399.375 L 97.265625 -331.859375 Z M 46.921875 0 L 46.921875 -299.25 L 97.265625 -299.25 L 97.265625 0 Z M 46.921875 0 "/></g></g></g><g fill="#406c8d" fill-opacity="1"><g transform="translate(642.90751, 470.087242)"><g><path d="M 46.921875 0 L 46.921875 -299.25 L 97.265625 -299.25 L 97.265625 -245.46875 L 149.34375 -299.25 L 259.765625 -299.25 L 312.40625 -246.03125 L 363.90625 -299.25 L 474.328125 -299.25 L 534.40625 -239.171875 L 534.40625 0 L 484.0625 0 L 484.0625 -226.578125 L 453.734375 -259.1875 L 377.0625 -259.1875 L 319.265625 -200.828125 L 319.265625 0 L 268.921875 0 L 269.5 -226.578125 L 238.59375 -259.1875 L 162.5 -259.1875 L 97.265625 -192.828125 L 97.265625 0 Z M 46.921875 0 "/></g></g></g><g fill="#406c8d" fill-opacity="1"><g transform="translate(1221.367189, 470.087242)"><g><path d="M 100.125 0 L 40.046875 -60.078125 L 40.046875 -239.171875 L 100.125 -299.25 L 242.03125 -299.25 L 302.109375 -239.171875 L 302.109375 -60.078125 L 242.03125 0 Z M 121.875 -40.046875 L 220.28125 -40.046875 L 251.75 -71.515625 L 251.1875 -227.71875 L 220.28125 -259.1875 L 121.875 -259.1875 L 90.40625 -227.71875 L 90.40625 -71.515625 Z M 121.875 -40.046875 "/></g></g></g><g fill="#406c8d" fill-opacity="1"><g transform="translate(1563.522681, 470.087242)"><g><path d="M 46.921875 0 L 46.921875 -299.25 L 97.265625 -299.25 L 97.265625 -245.46875 L 149.34375 -299.25 L 259.765625 -299.25 L 319.265625 -239.171875 L 319.265625 0 L 268.921875 0 L 268.921875 -226.578125 L 238.59375 -259.1875 L 162.5 -259.1875 L 97.265625 -192.828125 L 97.265625 0 Z M 46.921875 0 "/></g></g></g><g fill="#406c8d" fill-opacity="1"><g transform="translate(2514.215474, 515.440272)"><g><path d="M 50.390625 0 L 50.390625 -48.09375 L 258.25 -48.09375 L 289.171875 -79.59375 L 289.171875 -163.765625 L 258.25 -195.265625 L 95.0625 -195.265625 L 35.5 -254.8125 L 35.5 -361.90625 L 95.0625 -422.03125 L 319.53125 -422.03125 L 319.53125 -373.921875 L 118.53125 -373.921875 L 87.03125 -342.4375 L 87.609375 -272.5625 L 118.53125 -241.078125 L 281.734375 -241.078125 L 341.28125 -180.953125 L 341.28125 -60.125 L 281.734375 0 Z M 50.390625 0 "/></g></g></g><g fill="#406c8d" fill-opacity="1"><g transform="translate(2890.96555, 515.440272)"><g><path d="M 100.203125 0 L 40.078125 -60.125 L 40.078125 -239.359375 L 100.203125 -299.484375 L 237.0625 -299.484375 L 289.75 -247.375 L 289.75 -199.84375 L 239.359375 -199.84375 L 239.359375 -230.765625 L 210.71875 -259.40625 L 121.96875 -259.40625 L 90.46875 -227.90625 L 90.46875 -73.875 L 121.96875 -41.796875 L 286.890625 -41.796875 L 286.890625 0 Z M 100.203125 0 "/></g></g></g><g fill="#406c8d" fill-opacity="1"><g transform="translate(3211.031335, 515.440272)"><g><path d="M 46.953125 0 L 46.953125 -422.03125 L 97.34375 -422.03125 L 97.34375 -251.953125 L 143.15625 -299.484375 L 253.671875 -299.484375 L 313.21875 -239.359375 L 313.21875 0 L 262.828125 0 L 262.828125 -226.765625 L 232.484375 -259.40625 L 156.328125 -259.40625 L 97.34375 -199.28125 L 97.34375 0 Z M 46.953125 0 "/></g></g></g><g fill="#406c8d" fill-opacity="1"><g transform="translate(3568.314047, 515.440272)"><g><path d="M 375.640625 0 L 306.921875 0 L 239.9375 -221.03125 L 172.9375 0 L 104.21875 0 L 7.4375 -299.484375 L 60.703125 -299.484375 L 131.703125 -50.390625 L 144.875 -50.390625 L 211.875 -299.484375 L 267.421875 -299.484375 L 334.40625 -50.390625 L 347.578125 -50.390625 L 419.15625 -299.484375 L 471.84375 -299.484375 Z M 375.640625 0 "/></g></g></g><g fill="#406c8d" fill-opacity="1"><g transform="translate(4048.126383, 515.440272)"><g><path d="M 79.59375 0 L 20.046875 -60.125 L 20.046875 -128.265625 L 79.59375 -188.390625 L 231.90625 -188.390625 L 231.90625 -225.609375 L 200.984375 -257.109375 L 58.984375 -257.109375 L 58.984375 -299.484375 L 222.75 -299.484375 L 282.296875 -239.359375 L 282.296875 0 L 231.90625 0 L 231.90625 -46.375 L 185.53125 0 Z M 101.921875 -40.078125 L 172.9375 -40.078125 L 231.90625 -98.484375 L 231.90625 -148.875 L 101.921875 -148.3125 L 70.4375 -117.390625 L 70.4375 -71.578125 Z M 101.921875 -40.078125 "/></g></g></g><g fill="#406c8d" fill-opacity="1"><g transform="translate(4374.490337, 515.440272)"><g><path d="M 46.953125 0 L 46.953125 -299.484375 L 97.34375 -299.484375 L 97.34375 -245.65625 L 149.453125 -299.484375 L 226.1875 -299.484375 L 226.1875 -249.09375 L 151.75 -249.09375 L 97.34375 -192.96875 L 97.34375 0 Z M 46.953125 0 "/></g></g></g><g fill="#406c8d" fill-opacity="1"><g transform="translate(4606.953083, 515.440272)"><g><path d="M 103.078125 0 L 50.390625 -52.109375 L 50.390625 -259.40625 L 18.890625 -259.40625 L 18.890625 -299.484375 L 51.53125 -299.484375 L 64.140625 -376.21875 L 100.78125 -376.21875 L 100.78125 -299.484375 L 164.34375 -299.484375 L 164.34375 -259.40625 L 100.78125 -259.40625 L 100.78125 -69.859375 L 127.703125 -41.796875 L 177.515625 -41.796875 L 177.515625 0 Z M 103.078125 0 "/></g></g></g><g fill="#406c8d" fill-opacity="1"><g transform="translate(4798.763474, 515.440272)"><g><path d="M 30.34375 0 L 30.34375 -51.53125 L 217.03125 -257.109375 L 43.515625 -257.109375 L 43.515625 -299.484375 L 273.71875 -299.484375 L 273.71875 -247.953125 L 87.03125 -41.796875 L 278.296875 -41.796875 L 278.296875 0 Z M 30.34375 0 "/></g></g></g></svg>