<svg xmlns="http://www.w3.org/2000/svg" xmlns:xlink="http://www.w3.org/1999/xlink" width="500" zoomAndPan="magnify" viewBox="0 0 375 374.999991" height="500" preserveAspectRatio="xMidYMid meet" version="1.0"><defs><clipPath id="ffd5c68f51"><path d="M 6 17 L 364 17 L 364 368 L 6 368 Z M 6 17 " clip-rule="nonzero"/></clipPath><clipPath id="8eda4d1827"><path d="M 221.902344 -129.492188 L 490.707031 149.957031 L 135.039062 492.074219 L -133.765625 212.621094 Z M 221.902344 -129.492188 " clip-rule="nonzero"/></clipPath><clipPath id="fc4a71fa48"><path d="M 221.902344 -129.492188 L 490.707031 149.957031 L 135.039062 492.074219 L -133.765625 212.621094 Z M 221.902344 -129.492188 " clip-rule="nonzero"/></clipPath><clipPath id="0d91d36d07"><path d="M 136 171 L 203 171 L 203 238 L 136 238 Z M 136 171 " clip-rule="nonzero"/></clipPath><clipPath id="938cf17d0b"><path d="M 221.902344 -129.492188 L 490.707031 149.957031 L 135.039062 492.074219 L -133.765625 212.621094 Z M 221.902344 -129.492188 " clip-rule="nonzero"/></clipPath><clipPath id="fa0f1e2a5a"><path d="M 221.902344 -129.492188 L 490.707031 149.957031 L 135.039062 492.074219 L -133.765625 212.621094 Z M 221.902344 -129.492188 " clip-rule="nonzero"/></clipPath><clipPath id="e13752e38f"><path d="M 144 5 L 373 5 L 373 229 L 144 229 Z M 144 5 " clip-rule="nonzero"/></clipPath><clipPath id="9aeb638196"><path d="M 221.902344 -129.492188 L 490.707031 149.957031 L 135.039062 492.074219 L -133.765625 212.621094 Z M 221.902344 -129.492188 " clip-rule="nonzero"/></clipPath><clipPath id="b101b8c4f2"><path d="M 221.902344 -129.492188 L 490.707031 149.957031 L 135.039062 492.074219 L -133.765625 212.621094 Z M 221.902344 -129.492188 " clip-rule="nonzero"/></clipPath><clipPath id="f26e31e58a"><path d="M 7 71 L 287 71 L 287 369 L 7 369 Z M 7 71 " clip-rule="nonzero"/></clipPath><clipPath id="5dba847d75"><path d="M 221.902344 -129.492188 L 490.707031 149.957031 L 135.039062 492.074219 L -133.765625 212.621094 Z M 221.902344 -129.492188 " clip-rule="nonzero"/></clipPath><clipPath id="b551f48fc4"><path d="M 221.902344 -129.492188 L 490.707031 149.957031 L 135.039062 492.074219 L -133.765625 212.621094 Z M 221.902344 -129.492188 " clip-rule="nonzero"/></clipPath></defs><g clip-path="url(#ffd5c68f51)"><g clip-path="url(#8eda4d1827)"><g clip-path="url(#fc4a71fa48)"><path fill="#956acd" d="M 342.121094 180.164062 L 176 198.03125 L 200.296875 32.722656 L 363.328125 17.839844 Z M 158.058594 367.625 L 286.367188 346.46875 L 242.441406 251.75 L 192.457031 228.375 Z M 145.96875 180.121094 L 123.507812 129.710938 L 12.722656 71.714844 L 6.078125 211.941406 Z M 145.96875 180.121094 " fill-opacity="1" fill-rule="nonzero"/></g></g></g><g clip-path="url(#0d91d36d07)"><g clip-path="url(#938cf17d0b)"><g clip-path="url(#fa0f1e2a5a)"><path fill="#ff0054" d="M 184.652344 236.460938 C 178.367188 241.40625 177.8125 230.324219 160.304688 212.296875 C 143.429688 194.90625 133.023438 193.925781 138.015625 187.980469 C 145.726562 178.925781 184.992188 163.867188 197.792969 177.160156 C 210.59375 190.453125 194.003906 229.042969 184.652344 236.460938 Z M 184.652344 236.460938 " fill-opacity="1" fill-rule="nonzero"/></g></g></g><g clip-path="url(#e13752e38f)"><g clip-path="url(#9aeb638196)"><g clip-path="url(#b101b8c4f2)"><path fill="#613f8d" d="M 283.101562 141.1875 L 372.144531 138.214844 L 332.027344 211.464844 L 192.371094 228.457031 Z M 235.367188 94.128906 L 241.804688 5.257812 L 167.042969 42.492188 L 144.648438 181.390625 Z M 235.367188 94.128906 " fill-opacity="1" fill-rule="nonzero"/></g></g></g><g clip-path="url(#f26e31e58a)"><g clip-path="url(#5dba847d75)"><g clip-path="url(#b551f48fc4)"><path fill="#b090da" d="M 192.417969 228.410156 L 138.71875 368.738281 L 7.691406 359.453125 L 7.367188 232.1875 L 145.984375 180.136719 Z M 242.441406 251.75 L 286.367188 346.46875 L 263.3125 244.964844 L 192.449219 228.367188 Z M 145.96875 180.121094 L 140.515625 119.191406 L 12.722656 71.714844 L 123.492188 129.722656 Z M 145.96875 180.121094 " fill-opacity="1" fill-rule="nonzero"/></g></g></g></svg>